<svg width="159" height="50" viewBox="0 0 159 50" fill="none" xmlns="http://www.w3.org/2000/svg">
<g clip-path="url(#clip0_5_2)">
<g clip-path="url(#clip1_5_2)">
<path d="M28 0H22C9.84974 0 0 9.84974 0 22V28C0 40.1503 9.84974 50 22 50H28C40.1503 50 50 40.1503 50 28V22C50 9.84974 40.1503 0 28 0Z" fill="url(#paint0_linear_5_2)"/>
<path fill-rule="evenodd" clip-rule="evenodd" d="M12.999 23.5386L14.4985 24.4175V26.1727V27.9304V29.6856V31.4407L15.998 32.3196L17.4975 33.1984L18.997 34.0773L20.4965 34.9561L21.9959 35.835L23.4954 36.7138L24.9949 37.5927L26.4944 36.7138L27.9939 35.835L29.4934 34.9561L30.9929 34.0773L32.4924 33.1984L33.9919 32.3196L35.4914 31.4407V29.6856V27.9304V26.1727V24.4175L36.9909 23.5386V26.7172C36.8668 26.7932 36.7832 26.9376 36.7832 27.0895C36.7832 27.2415 36.8541 27.363 36.9605 27.4416L36.9098 27.5961L36.6084 28.5382H37.2112H37.8141L37.5127 27.5961L37.462 27.4416C37.5709 27.363 37.6393 27.2567 37.6393 27.0895C37.6393 26.9224 37.5177 26.7375 37.3506 26.6767V23.3259L25.3622 16.3001L25.7244 16.0874L37.7254 23.1131L38.5005 22.6598L40 21.7809L38.5005 20.9021L37.001 20.0232L35.5015 19.1444L33.9995 18.2681L32.5 17.3892L31.0005 16.5103L29.501 15.634L28.0015 14.7552L26.502 13.8763L25 13L23.5005 13.8789L22.001 14.7577L20.499 15.634L18.9995 16.5129L17.5 17.3917L16.0005 18.2681L14.501 19.1469L13.0015 20.0258L11.502 20.9046L10 21.7809L11.4995 22.6598L12.999 23.5386ZM23.5005 20.9046L25 20.0258L26.4995 20.9046L27.999 21.7835L26.4995 22.6623L25 23.5412L23.5005 24.4175V26.1752L25 27.0541L26.4995 26.1752L27.999 25.2963L29.4985 24.4175L30.998 23.5386L32.4975 22.6598L33.5284 22.0545L33.997 21.7809L32.7229 21.0363L32.4975 20.9046L30.998 20.0258L29.4985 19.1469L28.0015 18.2681L26.502 17.3892L25.0025 16.5103L23.5005 17.3917L22.001 18.2681L20.5015 19.1469L19.002 20.0258L17.5025 20.9046L16.003 21.7835L17.5025 22.6623V24.4175V26.1727V27.9304V28.832V29.6856L19.002 30.5644L20.5015 31.4433L22.001 32.3221L23.5005 33.201L25 34.0798L26.4995 33.201L27.999 32.3221L29.4985 31.4433L30.998 30.5644L32.4975 29.6856V27.9304V26.1727L30.998 27.0515L29.4985 27.9304L27.999 28.8092L26.4995 29.6881L25 30.5669L23.5005 29.6856L22.001 28.8067L20.5015 27.9278V22.6598L22.001 21.7809L23.5005 20.9046Z" fill="white"/>
</g>
<path d="M63.6914 16.7832L56.7305 38H51.123L60.6328 12.4062H64.2012L63.6914 16.7832ZM69.4746 38L62.4961 16.7832L61.9336 12.4062H65.5371L75.0996 38H69.4746ZM69.1582 28.4727V32.6035H55.6406V28.4727H69.1582ZM82.2188 23.1289V38H77.1562V18.9805H81.9199L82.2188 23.1289ZM87.9492 18.8574L87.8613 23.5508C87.6152 23.5156 87.3164 23.4863 86.9648 23.4629C86.625 23.4277 86.3145 23.4102 86.0332 23.4102C85.3184 23.4102 84.6973 23.5039 84.1699 23.6914C83.6543 23.8672 83.2207 24.1309 82.8691 24.4824C82.5293 24.834 82.2715 25.2617 82.0957 25.7656C81.9316 26.2695 81.8379 26.8438 81.8145 27.4883L80.7949 27.1719C80.7949 25.9414 80.918 24.8105 81.1641 23.7793C81.4102 22.7363 81.7676 21.8281 82.2363 21.0547C82.7168 20.2812 83.3027 19.6836 83.9941 19.2617C84.6855 18.8398 85.4766 18.6289 86.3672 18.6289C86.6484 18.6289 86.9355 18.6523 87.2285 18.6992C87.5215 18.7344 87.7617 18.7871 87.9492 18.8574ZM100.535 18.9805V22.5664H89.4609V18.9805H100.535ZM92.2031 14.2871H97.2656V32.2695C97.2656 32.8203 97.3359 33.2422 97.4766 33.5352C97.6289 33.8281 97.8516 34.0332 98.1445 34.1504C98.4375 34.2559 98.8066 34.3086 99.252 34.3086C99.5684 34.3086 99.8496 34.2969 100.096 34.2734C100.354 34.2383 100.57 34.2031 100.746 34.168L100.764 37.8945C100.33 38.0352 99.8613 38.1465 99.3574 38.2285C98.8535 38.3105 98.2969 38.3516 97.6875 38.3516C96.5742 38.3516 95.6016 38.1699 94.7695 37.8066C93.9492 37.4316 93.3164 36.834 92.8711 36.0137C92.4258 35.1934 92.2031 34.1152 92.2031 32.7793V14.2871ZM108.762 18.9805V38H103.682V18.9805H108.762ZM103.365 14.0234C103.365 13.2852 103.623 12.6758 104.139 12.1953C104.654 11.7148 105.346 11.4746 106.213 11.4746C107.068 11.4746 107.754 11.7148 108.27 12.1953C108.797 12.6758 109.061 13.2852 109.061 14.0234C109.061 14.7617 108.797 15.3711 108.27 15.8516C107.754 16.332 107.068 16.5723 106.213 16.5723C105.346 16.5723 104.654 16.332 104.139 15.8516C103.623 15.3711 103.365 14.7617 103.365 14.0234ZM120.803 34.3965C121.424 34.3965 121.975 34.2793 122.455 34.0449C122.936 33.7988 123.311 33.459 123.58 33.0254C123.861 32.5801 124.008 32.0586 124.02 31.4609H128.783C128.771 32.7969 128.414 33.9863 127.711 35.0293C127.008 36.0605 126.064 36.875 124.881 37.4727C123.697 38.0586 122.373 38.3516 120.908 38.3516C119.432 38.3516 118.143 38.1055 117.041 37.6133C115.951 37.1211 115.043 36.4414 114.316 35.5742C113.59 34.6953 113.045 33.6758 112.682 32.5156C112.318 31.3438 112.137 30.0898 112.137 28.7539V28.2441C112.137 26.8965 112.318 25.6426 112.682 24.4824C113.045 23.3105 113.59 22.291 114.316 21.4238C115.043 20.5449 115.951 19.8594 117.041 19.3672C118.131 18.875 119.408 18.6289 120.873 18.6289C122.432 18.6289 123.797 18.9277 124.969 19.5254C126.152 20.123 127.078 20.9785 127.746 22.0918C128.426 23.1934 128.771 24.5 128.783 26.0117H124.02C124.008 25.3789 123.873 24.8047 123.615 24.2891C123.369 23.7734 123.006 23.3633 122.525 23.0586C122.057 22.7422 121.477 22.584 120.785 22.584C120.047 22.584 119.443 22.7422 118.975 23.0586C118.506 23.3633 118.143 23.7852 117.885 24.3242C117.627 24.8516 117.445 25.4551 117.34 26.1348C117.246 26.8027 117.199 27.5059 117.199 28.2441V28.7539C117.199 29.4922 117.246 30.2012 117.34 30.8809C117.434 31.5605 117.609 32.1641 117.867 32.6914C118.137 33.2188 118.506 33.6348 118.975 33.9395C119.443 34.2441 120.053 34.3965 120.803 34.3965ZM137.062 11V38H131.982V11H137.062ZM150 38.3516C148.523 38.3516 147.199 38.1172 146.027 37.6484C144.855 37.168 143.859 36.5059 143.039 35.6621C142.23 34.8184 141.609 33.8398 141.176 32.7266C140.742 31.6016 140.525 30.4062 140.525 29.1406V28.4375C140.525 26.9961 140.73 25.6777 141.141 24.4824C141.551 23.2871 142.137 22.25 142.898 21.3711C143.672 20.4922 144.609 19.8184 145.711 19.3496C146.812 18.8691 148.055 18.6289 149.438 18.6289C150.785 18.6289 151.98 18.8516 153.023 19.2969C154.066 19.7422 154.939 20.375 155.643 21.1953C156.357 22.0156 156.896 23 157.26 24.1484C157.623 25.2852 157.805 26.5508 157.805 27.9453V30.0547H142.688V26.6797H152.83V26.293C152.83 25.5898 152.701 24.9629 152.443 24.4121C152.197 23.8496 151.822 23.4043 151.318 23.0762C150.814 22.748 150.17 22.584 149.385 22.584C148.717 22.584 148.143 22.7305 147.662 23.0234C147.182 23.3164 146.789 23.7266 146.484 24.2539C146.191 24.7812 145.969 25.4023 145.816 26.1172C145.676 26.8203 145.605 27.5938 145.605 28.4375V29.1406C145.605 29.9023 145.711 30.6055 145.922 31.25C146.145 31.8945 146.455 32.4512 146.854 32.9199C147.264 33.3887 147.756 33.752 148.33 34.0098C148.916 34.2676 149.578 34.3965 150.316 34.3965C151.23 34.3965 152.08 34.2207 152.865 33.8691C153.662 33.5059 154.348 32.9609 154.922 32.2344L157.383 34.9062C156.984 35.4805 156.439 36.0312 155.748 36.5586C155.068 37.0859 154.248 37.5195 153.287 37.8594C152.326 38.1875 151.23 38.3516 150 38.3516Z" fill="black"/>
</g>
<defs>
<linearGradient id="paint0_linear_5_2" x1="39" y1="45" x2="5" y2="6" gradientUnits="userSpaceOnUse">
<stop stop-color="#6440FB"/>
<stop offset="1" stop-color="#8466FF"/>
</linearGradient>
<clipPath id="clip0_5_2">
<rect width="159" height="50" fill="white"/>
</clipPath>
<clipPath id="clip1_5_2">
<rect width="50" height="50" fill="white"/>
</clipPath>
</defs>
</svg>
