<svg width="159" height="50" viewBox="0 0 159 50" fill="none" xmlns="http://www.w3.org/2000/svg">
<g clip-path="url(#clip0_5_2)">
<g clip-path="url(#clip1_5_2)">
<path d="M28 0H22C9.84974 0 0 9.84974 0 22V28C0 40.1503 9.84974 50 22 50H28C40.1503 50 50 40.1503 50 28V22C50 9.84974 40.1503 0 28 0Z" fill="url(#paint0_linear_5_2)"/>
<path fill-rule="evenodd" clip-rule="evenodd" d="M12.999 23.5386L14.4985 24.4175V26.1727V27.9304V29.6856V31.4407L15.998 32.3196L17.4975 33.1984L18.997 34.0773L20.4965 34.9561L21.9959 35.835L23.4954 36.7138L24.9949 37.5927L26.4944 36.7138L27.9939 35.835L29.4934 34.9561L30.9929 34.0773L32.4924 33.1984L33.9919 32.3196L35.4914 31.4407V29.6856V27.9304V26.1727V24.4175L36.9909 23.5386V26.7172C36.8668 26.7932 36.7832 26.9376 36.7832 27.0895C36.7832 27.2415 36.8541 27.363 36.9605 27.4416L36.9098 27.5961L36.6084 28.5382H37.2112H37.8141L37.5127 27.5961L37.462 27.4416C37.5709 27.363 37.6393 27.2567 37.6393 27.0895C37.6393 26.9224 37.5177 26.7375 37.3506 26.6767V23.3259L25.3622 16.3001L25.7244 16.0874L37.7254 23.1131L38.5005 22.6598L40 21.7809L38.5005 20.9021L37.001 20.0232L35.5015 19.1444L33.9995 18.2681L32.5 17.3892L31.0005 16.5103L29.501 15.634L28.0015 14.7552L26.502 13.8763L25 13L23.5005 13.8789L22.001 14.7577L20.499 15.634L18.9995 16.5129L17.5 17.3917L16.0005 18.2681L14.501 19.1469L13.0015 20.0258L11.502 20.9046L10 21.7809L11.4995 22.6598L12.999 23.5386ZM23.5005 20.9046L25 20.0258L26.4995 20.9046L27.999 21.7835L26.4995 22.6623L25 23.5412L23.5005 24.4175V26.1752L25 27.0541L26.4995 26.1752L27.999 25.2963L29.4985 24.4175L30.998 23.5386L32.4975 22.6598L33.5284 22.0545L33.997 21.7809L32.7229 21.0363L32.4975 20.9046L30.998 20.0258L29.4985 19.1469L28.0015 18.2681L26.502 17.3892L25.0025 16.5103L23.5005 17.3917L22.001 18.2681L20.5015 19.1469L19.002 20.0258L17.5025 20.9046L16.003 21.7835L17.5025 22.6623V24.4175V26.1727V27.9304V28.832V29.6856L19.002 30.5644L20.5015 31.4433L22.001 32.3221L23.5005 33.201L25 34.0798L26.4995 33.201L27.999 32.3221L29.4985 31.4433L30.998 30.5644L32.4975 29.6856V27.9304V26.1727L30.998 27.0515L29.4985 27.9304L27.999 28.8092L26.4995 29.6881L25 30.5669L23.5005 29.6856L22.001 28.8067L20.5015 27.9278V22.6598L22.001 21.7809L23.5005 20.9046Z" fill="white"/>
</g>
<path d="M54.2443 38H50.9205L60.5341 11.8182H63.8068L73.4205 38H70.0966L62.2727 15.9602H62.0682L54.2443 38ZM55.4716 27.7727H68.8693V30.5852H55.4716V27.7727ZM77.0895 38V18.3636H80.0043V21.3295H80.2088C80.5668 20.358 81.2145 19.5696 82.152 18.9645C83.0895 18.3594 84.1463 18.0568 85.3224 18.0568C85.544 18.0568 85.821 18.0611 86.1534 18.0696C86.4858 18.0781 86.7372 18.0909 86.9077 18.108V21.1761C86.8054 21.1506 86.571 21.1122 86.2045 21.0611C85.8466 21.0014 85.4673 20.9716 85.0668 20.9716C84.1122 20.9716 83.2599 21.1719 82.5099 21.5724C81.7685 21.9645 81.1804 22.5099 80.7457 23.2088C80.3196 23.8991 80.1065 24.6875 80.1065 25.5739V38H77.0895ZM100.254 18.3636V20.9205H90.0781V18.3636H100.254ZM93.044 13.6591H96.0611V32.375C96.0611 33.2273 96.1847 33.8665 96.4318 34.2926C96.6875 34.7102 97.0114 34.9915 97.4034 35.1364C97.804 35.2727 98.2259 35.3409 98.669 35.3409C99.0014 35.3409 99.2741 35.3239 99.4872 35.2898C99.7003 35.2472 99.8707 35.2131 99.9986 35.1875L100.612 37.8977C100.408 37.9744 100.122 38.0511 99.7557 38.1278C99.3892 38.2131 98.9247 38.2557 98.3622 38.2557C97.5099 38.2557 96.6747 38.0724 95.8565 37.706C95.0469 37.3395 94.3736 36.7812 93.8366 36.0312C93.3082 35.2812 93.044 34.3352 93.044 33.1932V13.6591ZM104.793 38V18.3636H107.81V38H104.793ZM106.327 15.0909C105.739 15.0909 105.232 14.8906 104.805 14.4901C104.388 14.0895 104.179 13.608 104.179 13.0455C104.179 12.483 104.388 12.0014 104.805 11.6009C105.232 11.2003 105.739 11 106.327 11C106.915 11 107.418 11.2003 107.835 11.6009C108.261 12.0014 108.474 12.483 108.474 13.0455C108.474 13.608 108.261 14.0895 107.835 14.4901C107.418 14.8906 106.915 15.0909 106.327 15.0909ZM121.313 38.4091C119.472 38.4091 117.887 37.9744 116.557 37.1051C115.228 36.2358 114.205 35.0384 113.489 33.5128C112.773 31.9872 112.415 30.2443 112.415 28.2841C112.415 26.2898 112.782 24.5298 113.515 23.0043C114.256 21.4702 115.287 20.2727 116.608 19.4119C117.938 18.5426 119.489 18.108 121.262 18.108C122.642 18.108 123.887 18.3636 124.995 18.875C126.103 19.3864 127.01 20.1023 127.718 21.0227C128.425 21.9432 128.864 23.017 129.034 24.2443H126.017C125.787 23.3494 125.276 22.5568 124.483 21.8665C123.699 21.1676 122.642 20.8182 121.313 20.8182C120.137 20.8182 119.105 21.125 118.219 21.7386C117.341 22.3437 116.655 23.2003 116.161 24.3082C115.675 25.4077 115.432 26.6989 115.432 28.1818C115.432 29.6989 115.671 31.0199 116.148 32.1449C116.634 33.2699 117.316 34.1435 118.194 34.7656C119.08 35.3878 120.12 35.6989 121.313 35.6989C122.097 35.6989 122.809 35.5625 123.448 35.2898C124.087 35.017 124.628 34.625 125.071 34.1136C125.515 33.6023 125.83 32.9886 126.017 32.2727H129.034C128.864 33.4318 128.442 34.4759 127.769 35.4048C127.104 36.3253 126.222 37.0582 125.123 37.6037C124.032 38.1406 122.762 38.4091 121.313 38.4091ZM136.462 11.8182V38H133.445V11.8182H136.462ZM150.221 38.4091C148.329 38.4091 146.697 37.9915 145.325 37.1562C143.961 36.3125 142.908 35.1364 142.167 33.6278C141.434 32.1108 141.067 30.3466 141.067 28.3352C141.067 26.3239 141.434 24.5511 142.167 23.017C142.908 21.4744 143.94 20.2727 145.261 19.4119C146.59 18.5426 148.141 18.108 149.914 18.108C150.937 18.108 151.947 18.2784 152.944 18.6193C153.941 18.9602 154.849 19.5142 155.667 20.2812C156.485 21.0398 157.137 22.0455 157.623 23.2983C158.109 24.5511 158.352 26.0937 158.352 27.9261V29.2045H143.215V26.5966H155.283C155.283 25.4886 155.062 24.5 154.619 23.6307C154.184 22.7614 153.562 22.0753 152.752 21.5724C151.951 21.0696 151.005 20.8182 149.914 20.8182C148.712 20.8182 147.673 21.1165 146.795 21.7131C145.925 22.3011 145.256 23.0682 144.788 24.0142C144.319 24.9602 144.085 25.9744 144.085 27.0568V28.7955C144.085 30.2784 144.34 31.5355 144.852 32.5668C145.371 33.5895 146.092 34.3693 147.012 34.9062C147.933 35.4347 149.002 35.6989 150.221 35.6989C151.013 35.6989 151.729 35.5881 152.369 35.3665C153.016 35.1364 153.575 34.7955 154.043 34.3438C154.512 33.8835 154.874 33.3125 155.13 32.6307L158.045 33.4489C157.738 34.4375 157.222 35.3068 156.498 36.0568C155.773 36.7983 154.879 37.3778 153.813 37.7955C152.748 38.2045 151.55 38.4091 150.221 38.4091Z" fill="#6B48FC"/>
</g>
<defs>
<linearGradient id="paint0_linear_5_2" x1="39" y1="45" x2="5" y2="6" gradientUnits="userSpaceOnUse">
<stop stop-color="#6440FB"/>
<stop offset="1" stop-color="#8466FF"/>
</linearGradient>
<clipPath id="clip0_5_2">
<rect width="159" height="50" fill="white"/>
</clipPath>
<clipPath id="clip1_5_2">
<rect width="50" height="50" fill="white"/>
</clipPath>
</defs>
</svg>
